<mxfile host="Electron" modified="2023-06-26T10:14:56.708Z" agent="Mozilla/5.0 (Windows NT 10.0; Win64; x64) AppleWebKit/537.36 (KHTML, like Gecko) draw.io/21.2.8 Chrome/112.0.5615.165 Electron/24.2.0 Safari/537.36" etag="w32y84AjmGkPcDp60j-9" version="21.2.8" type="device">
  <diagram name="Page-1" id="95SPCoBup6hBJvzK0H_W">
    <mxGraphModel dx="780" dy="504" grid="1" gridSize="10" guides="1" tooltips="1" connect="1" arrows="1" fold="1" page="1" pageScale="1" pageWidth="850" pageHeight="1100" math="0" shadow="0">
      <root>
        <mxCell id="0" />
        <mxCell id="1" parent="0" />
        <mxCell id="DLG-NYhF3aaEdHH3IO_--9" style="edgeStyle=orthogonalEdgeStyle;rounded=0;orthogonalLoop=1;jettySize=auto;html=1;exitX=1;exitY=0.5;exitDx=0;exitDy=0;entryX=0;entryY=0.5;entryDx=0;entryDy=0;" parent="1" source="DLG-NYhF3aaEdHH3IO_--1" target="DLG-NYhF3aaEdHH3IO_--7" edge="1">
          <mxGeometry relative="1" as="geometry" />
        </mxCell>
        <mxCell id="DLG-NYhF3aaEdHH3IO_--1" value="" style="rounded=0;whiteSpace=wrap;html=1;" parent="1" vertex="1">
          <mxGeometry x="80" y="240" width="120" height="50" as="geometry" />
        </mxCell>
        <mxCell id="DLG-NYhF3aaEdHH3IO_--6" value="" style="rounded=0;whiteSpace=wrap;html=1;" parent="1" vertex="1">
          <mxGeometry x="600" y="240" width="120" height="50" as="geometry" />
        </mxCell>
        <mxCell id="DLG-NYhF3aaEdHH3IO_--10" style="edgeStyle=orthogonalEdgeStyle;rounded=0;orthogonalLoop=1;jettySize=auto;html=1;exitX=1;exitY=0.5;exitDx=0;exitDy=0;entryX=0;entryY=0.5;entryDx=0;entryDy=0;" parent="1" source="DLG-NYhF3aaEdHH3IO_--7" target="DLG-NYhF3aaEdHH3IO_--6" edge="1">
          <mxGeometry relative="1" as="geometry" />
        </mxCell>
        <mxCell id="DLG-NYhF3aaEdHH3IO_--7" value="" style="rhombus;whiteSpace=wrap;html=1;" parent="1" vertex="1">
          <mxGeometry x="360" y="230" width="80" height="70" as="geometry" />
        </mxCell>
        <mxCell id="DLG-NYhF3aaEdHH3IO_--11" value="" style="ellipse;whiteSpace=wrap;html=1;" parent="1" vertex="1">
          <mxGeometry x="20" y="120" width="90" height="40" as="geometry" />
        </mxCell>
        <mxCell id="DLG-NYhF3aaEdHH3IO_--12" value="" style="ellipse;whiteSpace=wrap;html=1;" parent="1" vertex="1">
          <mxGeometry x="60" y="60" width="90" height="40" as="geometry" />
        </mxCell>
        <mxCell id="DLG-NYhF3aaEdHH3IO_--13" value="" style="ellipse;whiteSpace=wrap;html=1;" parent="1" vertex="1">
          <mxGeometry x="190" y="60" width="90" height="40" as="geometry" />
        </mxCell>
        <mxCell id="DLG-NYhF3aaEdHH3IO_--14" value="" style="ellipse;whiteSpace=wrap;html=1;" parent="1" vertex="1">
          <mxGeometry x="230" y="120" width="90" height="40" as="geometry" />
        </mxCell>
        <mxCell id="DLG-NYhF3aaEdHH3IO_--19" value="" style="endArrow=none;html=1;rounded=0;entryX=0.5;entryY=1;entryDx=0;entryDy=0;" parent="1" target="DLG-NYhF3aaEdHH3IO_--11" edge="1">
          <mxGeometry width="50" height="50" relative="1" as="geometry">
            <mxPoint x="90" y="240" as="sourcePoint" />
            <mxPoint x="110" y="170" as="targetPoint" />
            <Array as="points">
              <mxPoint x="130" y="240" />
            </Array>
          </mxGeometry>
        </mxCell>
        <mxCell id="DLG-NYhF3aaEdHH3IO_--25" value="" style="endArrow=none;html=1;rounded=0;" parent="1" edge="1">
          <mxGeometry width="50" height="50" relative="1" as="geometry">
            <mxPoint x="130" y="240" as="sourcePoint" />
            <mxPoint x="120" y="100" as="targetPoint" />
          </mxGeometry>
        </mxCell>
        <mxCell id="DLG-NYhF3aaEdHH3IO_--27" value="" style="endArrow=none;html=1;rounded=0;exitX=0.75;exitY=0;exitDx=0;exitDy=0;" parent="1" source="DLG-NYhF3aaEdHH3IO_--1" edge="1">
          <mxGeometry width="50" height="50" relative="1" as="geometry">
            <mxPoint x="160" y="240" as="sourcePoint" />
            <mxPoint x="220" y="100" as="targetPoint" />
          </mxGeometry>
        </mxCell>
        <mxCell id="DLG-NYhF3aaEdHH3IO_--28" value="" style="endArrow=none;html=1;rounded=0;" parent="1" target="DLG-NYhF3aaEdHH3IO_--7" edge="1">
          <mxGeometry width="50" height="50" relative="1" as="geometry">
            <mxPoint x="400" y="300" as="sourcePoint" />
            <mxPoint x="450" y="250" as="targetPoint" />
          </mxGeometry>
        </mxCell>
        <mxCell id="DLG-NYhF3aaEdHH3IO_--29" value="" style="endArrow=none;html=1;rounded=0;" parent="1" target="DLG-NYhF3aaEdHH3IO_--14" edge="1">
          <mxGeometry width="50" height="50" relative="1" as="geometry">
            <mxPoint x="180" y="240" as="sourcePoint" />
            <mxPoint x="230" y="190" as="targetPoint" />
            <Array as="points">
              <mxPoint x="170" y="240" />
            </Array>
          </mxGeometry>
        </mxCell>
        <mxCell id="DLG-NYhF3aaEdHH3IO_--30" value="" style="ellipse;whiteSpace=wrap;html=1;" parent="1" vertex="1">
          <mxGeometry x="540" y="120" width="90" height="40" as="geometry" />
        </mxCell>
        <mxCell id="DLG-NYhF3aaEdHH3IO_--31" value="" style="ellipse;whiteSpace=wrap;html=1;" parent="1" vertex="1">
          <mxGeometry x="580" y="60" width="90" height="40" as="geometry" />
        </mxCell>
        <mxCell id="DLG-NYhF3aaEdHH3IO_--32" value="" style="ellipse;whiteSpace=wrap;html=1;" parent="1" vertex="1">
          <mxGeometry x="710" y="60" width="90" height="40" as="geometry" />
        </mxCell>
        <mxCell id="DLG-NYhF3aaEdHH3IO_--33" value="" style="ellipse;whiteSpace=wrap;html=1;" parent="1" vertex="1">
          <mxGeometry x="750" y="120" width="90" height="40" as="geometry" />
        </mxCell>
        <mxCell id="DLG-NYhF3aaEdHH3IO_--34" value="" style="endArrow=none;html=1;rounded=0;entryX=0.5;entryY=1;entryDx=0;entryDy=0;" parent="1" target="DLG-NYhF3aaEdHH3IO_--30" edge="1">
          <mxGeometry width="50" height="50" relative="1" as="geometry">
            <mxPoint x="610" y="240" as="sourcePoint" />
            <mxPoint x="630" y="170" as="targetPoint" />
            <Array as="points">
              <mxPoint x="640" y="240" />
            </Array>
          </mxGeometry>
        </mxCell>
        <mxCell id="DLG-NYhF3aaEdHH3IO_--35" value="" style="endArrow=none;html=1;rounded=0;exitX=0.333;exitY=0.007;exitDx=0;exitDy=0;exitPerimeter=0;" parent="1" source="DLG-NYhF3aaEdHH3IO_--6" edge="1">
          <mxGeometry width="50" height="50" relative="1" as="geometry">
            <mxPoint x="675" y="240" as="sourcePoint" />
            <mxPoint x="640" y="100" as="targetPoint" />
          </mxGeometry>
        </mxCell>
        <mxCell id="DLG-NYhF3aaEdHH3IO_--36" value="" style="endArrow=none;html=1;rounded=0;exitX=0.75;exitY=0;exitDx=0;exitDy=0;" parent="1" edge="1">
          <mxGeometry width="50" height="50" relative="1" as="geometry">
            <mxPoint x="690" y="240" as="sourcePoint" />
            <mxPoint x="740" y="100" as="targetPoint" />
          </mxGeometry>
        </mxCell>
        <mxCell id="DLG-NYhF3aaEdHH3IO_--37" value="" style="endArrow=none;html=1;rounded=0;" parent="1" target="DLG-NYhF3aaEdHH3IO_--33" edge="1">
          <mxGeometry width="50" height="50" relative="1" as="geometry">
            <mxPoint x="690" y="240" as="sourcePoint" />
            <mxPoint x="750" y="190" as="targetPoint" />
          </mxGeometry>
        </mxCell>
        <mxCell id="DLG-NYhF3aaEdHH3IO_--41" value="" style="rounded=0;whiteSpace=wrap;html=1;" parent="1" vertex="1">
          <mxGeometry x="335" y="450" width="130" height="40" as="geometry" />
        </mxCell>
        <mxCell id="DLG-NYhF3aaEdHH3IO_--42" value="" style="rhombus;whiteSpace=wrap;html=1;" parent="1" vertex="1">
          <mxGeometry x="200" y="360" width="80" height="70" as="geometry" />
        </mxCell>
        <mxCell id="DLG-NYhF3aaEdHH3IO_--43" value="" style="rhombus;whiteSpace=wrap;html=1;" parent="1" vertex="1">
          <mxGeometry x="520" y="360" width="80" height="70" as="geometry" />
        </mxCell>
        <mxCell id="DLG-NYhF3aaEdHH3IO_--49" value="" style="endArrow=classic;html=1;rounded=0;exitX=0.417;exitY=1.02;exitDx=0;exitDy=0;exitPerimeter=0;" parent="1" source="DLG-NYhF3aaEdHH3IO_--1" target="DLG-NYhF3aaEdHH3IO_--42" edge="1">
          <mxGeometry width="50" height="50" relative="1" as="geometry">
            <mxPoint x="130" y="360" as="sourcePoint" />
            <mxPoint x="180" y="310" as="targetPoint" />
          </mxGeometry>
        </mxCell>
        <mxCell id="DLG-NYhF3aaEdHH3IO_--50" value="" style="endArrow=classic;html=1;rounded=0;exitX=0.5;exitY=1;exitDx=0;exitDy=0;" parent="1" source="DLG-NYhF3aaEdHH3IO_--6" target="DLG-NYhF3aaEdHH3IO_--43" edge="1">
          <mxGeometry width="50" height="50" relative="1" as="geometry">
            <mxPoint x="610" y="330" as="sourcePoint" />
            <mxPoint x="701" y="416" as="targetPoint" />
          </mxGeometry>
        </mxCell>
        <mxCell id="DLG-NYhF3aaEdHH3IO_--52" value="" style="endArrow=classic;html=1;rounded=0;entryX=0;entryY=0.5;entryDx=0;entryDy=0;exitX=1;exitY=1;exitDx=0;exitDy=0;" parent="1" source="DLG-NYhF3aaEdHH3IO_--42" target="DLG-NYhF3aaEdHH3IO_--41" edge="1">
          <mxGeometry width="50" height="50" relative="1" as="geometry">
            <mxPoint x="260" y="460" as="sourcePoint" />
            <mxPoint x="310" y="410" as="targetPoint" />
          </mxGeometry>
        </mxCell>
        <mxCell id="DLG-NYhF3aaEdHH3IO_--54" value="" style="endArrow=classic;html=1;rounded=0;entryX=1;entryY=0.5;entryDx=0;entryDy=0;exitX=0;exitY=1;exitDx=0;exitDy=0;" parent="1" source="DLG-NYhF3aaEdHH3IO_--43" target="DLG-NYhF3aaEdHH3IO_--41" edge="1">
          <mxGeometry width="50" height="50" relative="1" as="geometry">
            <mxPoint x="510" y="440" as="sourcePoint" />
            <mxPoint x="585" y="497" as="targetPoint" />
          </mxGeometry>
        </mxCell>
        <mxCell id="DLG-NYhF3aaEdHH3IO_--55" value="" style="ellipse;whiteSpace=wrap;html=1;" parent="1" vertex="1">
          <mxGeometry x="355" y="600" width="90" height="40" as="geometry" />
        </mxCell>
        <mxCell id="DLG-NYhF3aaEdHH3IO_--56" value="description" style="ellipse;whiteSpace=wrap;html=1;" parent="1" vertex="1">
          <mxGeometry x="240" y="600" width="90" height="40" as="geometry" />
        </mxCell>
        <mxCell id="DLG-NYhF3aaEdHH3IO_--57" value="" style="ellipse;whiteSpace=wrap;html=1;" parent="1" vertex="1">
          <mxGeometry x="210" y="500" width="90" height="40" as="geometry" />
        </mxCell>
        <mxCell id="DLG-NYhF3aaEdHH3IO_--58" value="title" style="ellipse;whiteSpace=wrap;html=1;" parent="1" vertex="1">
          <mxGeometry x="170" y="550" width="90" height="40" as="geometry" />
        </mxCell>
        <mxCell id="DLG-NYhF3aaEdHH3IO_--60" value="" style="endArrow=classic;html=1;rounded=0;entryX=1;entryY=0.5;entryDx=0;entryDy=0;exitX=0.5;exitY=1;exitDx=0;exitDy=0;" parent="1" source="DLG-NYhF3aaEdHH3IO_--41" target="DLG-NYhF3aaEdHH3IO_--57" edge="1">
          <mxGeometry width="50" height="50" relative="1" as="geometry">
            <mxPoint x="380" y="490" as="sourcePoint" />
            <mxPoint x="430" y="440" as="targetPoint" />
          </mxGeometry>
        </mxCell>
        <mxCell id="DLG-NYhF3aaEdHH3IO_--61" value="" style="endArrow=classic;html=1;rounded=0;entryX=1;entryY=0.5;entryDx=0;entryDy=0;exitX=0.5;exitY=1;exitDx=0;exitDy=0;" parent="1" source="DLG-NYhF3aaEdHH3IO_--41" target="DLG-NYhF3aaEdHH3IO_--58" edge="1">
          <mxGeometry width="50" height="50" relative="1" as="geometry">
            <mxPoint x="380" y="490" as="sourcePoint" />
            <mxPoint x="310" y="560" as="targetPoint" />
          </mxGeometry>
        </mxCell>
        <mxCell id="DLG-NYhF3aaEdHH3IO_--62" value="" style="endArrow=classic;html=1;rounded=0;entryX=0.5;entryY=0;entryDx=0;entryDy=0;exitX=0.5;exitY=1;exitDx=0;exitDy=0;" parent="1" source="DLG-NYhF3aaEdHH3IO_--41" target="DLG-NYhF3aaEdHH3IO_--56" edge="1">
          <mxGeometry width="50" height="50" relative="1" as="geometry">
            <mxPoint x="380" y="490" as="sourcePoint" />
            <mxPoint x="410" y="570" as="targetPoint" />
          </mxGeometry>
        </mxCell>
        <mxCell id="DLG-NYhF3aaEdHH3IO_--65" value="" style="endArrow=classic;html=1;rounded=0;" parent="1" target="DLG-NYhF3aaEdHH3IO_--55" edge="1">
          <mxGeometry width="50" height="50" relative="1" as="geometry">
            <mxPoint x="400" y="490" as="sourcePoint" />
            <mxPoint x="425" y="520" as="targetPoint" />
          </mxGeometry>
        </mxCell>
        <mxCell id="DLG-NYhF3aaEdHH3IO_--81" value="" style="ellipse;whiteSpace=wrap;html=1;" parent="1" vertex="1">
          <mxGeometry x="470" y="600" width="90" height="40" as="geometry" />
        </mxCell>
        <mxCell id="DLG-NYhF3aaEdHH3IO_--86" value="" style="ellipse;whiteSpace=wrap;html=1;" parent="1" vertex="1">
          <mxGeometry x="520" y="500" width="90" height="40" as="geometry" />
        </mxCell>
        <mxCell id="DLG-NYhF3aaEdHH3IO_--87" value="" style="ellipse;whiteSpace=wrap;html=1;" parent="1" vertex="1">
          <mxGeometry x="540" y="550" width="90" height="40" as="geometry" />
        </mxCell>
        <mxCell id="DLG-NYhF3aaEdHH3IO_--88" value="" style="endArrow=classic;html=1;rounded=0;entryX=0;entryY=0.5;entryDx=0;entryDy=0;" parent="1" target="DLG-NYhF3aaEdHH3IO_--86" edge="1">
          <mxGeometry width="50" height="50" relative="1" as="geometry">
            <mxPoint x="400" y="490" as="sourcePoint" />
            <mxPoint x="430" y="510" as="targetPoint" />
          </mxGeometry>
        </mxCell>
        <mxCell id="DLG-NYhF3aaEdHH3IO_--89" value="" style="endArrow=classic;html=1;rounded=0;entryX=0;entryY=0.5;entryDx=0;entryDy=0;" parent="1" target="DLG-NYhF3aaEdHH3IO_--87" edge="1">
          <mxGeometry width="50" height="50" relative="1" as="geometry">
            <mxPoint x="400" y="490" as="sourcePoint" />
            <mxPoint x="430" y="510" as="targetPoint" />
          </mxGeometry>
        </mxCell>
        <mxCell id="DLG-NYhF3aaEdHH3IO_--90" value="" style="endArrow=classic;html=1;rounded=0;entryX=0;entryY=0;entryDx=0;entryDy=0;" parent="1" target="DLG-NYhF3aaEdHH3IO_--81" edge="1">
          <mxGeometry width="50" height="50" relative="1" as="geometry">
            <mxPoint x="400" y="490" as="sourcePoint" />
            <mxPoint x="430" y="510" as="targetPoint" />
          </mxGeometry>
        </mxCell>
        <mxCell id="DLG-NYhF3aaEdHH3IO_--91" value="adminId" style="text;html=1;strokeColor=none;fillColor=none;align=center;verticalAlign=middle;whiteSpace=wrap;rounded=0;fontStyle=4" parent="1" vertex="1">
          <mxGeometry x="35" y="125" width="60" height="30" as="geometry" />
        </mxCell>
        <mxCell id="DLG-NYhF3aaEdHH3IO_--94" value="name" style="text;html=1;strokeColor=none;fillColor=none;align=center;verticalAlign=middle;whiteSpace=wrap;rounded=0;fontStyle=0" parent="1" vertex="1">
          <mxGeometry x="75" y="65" width="60" height="30" as="geometry" />
        </mxCell>
        <mxCell id="DLG-NYhF3aaEdHH3IO_--95" value="email" style="text;html=1;strokeColor=none;fillColor=none;align=center;verticalAlign=middle;whiteSpace=wrap;rounded=0;" parent="1" vertex="1">
          <mxGeometry x="205" y="65" width="60" height="30" as="geometry" />
        </mxCell>
        <mxCell id="DLG-NYhF3aaEdHH3IO_--96" value="password" style="text;html=1;strokeColor=none;fillColor=none;align=center;verticalAlign=middle;whiteSpace=wrap;rounded=0;" parent="1" vertex="1">
          <mxGeometry x="245" y="125" width="60" height="30" as="geometry" />
        </mxCell>
        <mxCell id="DLG-NYhF3aaEdHH3IO_--97" value="password" style="text;html=1;strokeColor=none;fillColor=none;align=center;verticalAlign=middle;whiteSpace=wrap;rounded=0;" parent="1" vertex="1">
          <mxGeometry x="765" y="125" width="60" height="30" as="geometry" />
        </mxCell>
        <mxCell id="DLG-NYhF3aaEdHH3IO_--98" value="email" style="text;html=1;strokeColor=none;fillColor=none;align=center;verticalAlign=middle;whiteSpace=wrap;rounded=0;" parent="1" vertex="1">
          <mxGeometry x="725" y="65" width="60" height="30" as="geometry" />
        </mxCell>
        <mxCell id="DLG-NYhF3aaEdHH3IO_--99" value="name" style="text;html=1;strokeColor=none;fillColor=none;align=center;verticalAlign=middle;whiteSpace=wrap;rounded=0;fontStyle=0" parent="1" vertex="1">
          <mxGeometry x="595" y="65" width="60" height="30" as="geometry" />
        </mxCell>
        <mxCell id="DLG-NYhF3aaEdHH3IO_--100" value="userId" style="text;html=1;strokeColor=none;fillColor=none;align=center;verticalAlign=middle;whiteSpace=wrap;rounded=0;fontStyle=4" parent="1" vertex="1">
          <mxGeometry x="555" y="125" width="60" height="30" as="geometry" />
        </mxCell>
        <mxCell id="DLG-NYhF3aaEdHH3IO_--101" value="Admin" style="text;html=1;strokeColor=none;fillColor=none;align=center;verticalAlign=middle;whiteSpace=wrap;rounded=0;" parent="1" vertex="1">
          <mxGeometry x="110" y="250" width="60" height="30" as="geometry" />
        </mxCell>
        <mxCell id="DLG-NYhF3aaEdHH3IO_--102" value="User" style="text;html=1;strokeColor=none;fillColor=none;align=center;verticalAlign=middle;whiteSpace=wrap;rounded=0;" parent="1" vertex="1">
          <mxGeometry x="630" y="250" width="60" height="30" as="geometry" />
        </mxCell>
        <mxCell id="DLG-NYhF3aaEdHH3IO_--103" value="Assigns" style="text;html=1;strokeColor=none;fillColor=none;align=center;verticalAlign=middle;whiteSpace=wrap;rounded=0;" parent="1" vertex="1">
          <mxGeometry x="370" y="250" width="60" height="30" as="geometry" />
        </mxCell>
        <mxCell id="DLG-NYhF3aaEdHH3IO_--104" value="Add" style="text;html=1;strokeColor=none;fillColor=none;align=center;verticalAlign=middle;whiteSpace=wrap;rounded=0;" parent="1" vertex="1">
          <mxGeometry x="210" y="380" width="60" height="30" as="geometry" />
        </mxCell>
        <mxCell id="DLG-NYhF3aaEdHH3IO_--105" value="Has" style="text;html=1;strokeColor=none;fillColor=none;align=center;verticalAlign=middle;whiteSpace=wrap;rounded=0;" parent="1" vertex="1">
          <mxGeometry x="530" y="380" width="60" height="30" as="geometry" />
        </mxCell>
        <mxCell id="DLG-NYhF3aaEdHH3IO_--107" value="Event" style="text;html=1;strokeColor=none;fillColor=none;align=center;verticalAlign=middle;whiteSpace=wrap;rounded=0;" parent="1" vertex="1">
          <mxGeometry x="370" y="455" width="60" height="30" as="geometry" />
        </mxCell>
        <mxCell id="DLG-NYhF3aaEdHH3IO_--108" value="eventId" style="text;html=1;strokeColor=none;fillColor=none;align=center;verticalAlign=middle;whiteSpace=wrap;rounded=0;fontStyle=4" parent="1" vertex="1">
          <mxGeometry x="225" y="505" width="60" height="30" as="geometry" />
        </mxCell>
        <mxCell id="DLG-NYhF3aaEdHH3IO_--109" value="userId" style="text;html=1;strokeColor=none;fillColor=none;align=center;verticalAlign=middle;whiteSpace=wrap;rounded=0;" parent="1" vertex="1">
          <mxGeometry x="535" y="505" width="60" height="30" as="geometry" />
        </mxCell>
        <mxCell id="DLG-NYhF3aaEdHH3IO_--110" value="adminId" style="text;html=1;strokeColor=none;fillColor=none;align=center;verticalAlign=middle;whiteSpace=wrap;rounded=0;" parent="1" vertex="1">
          <mxGeometry x="555" y="555" width="60" height="30" as="geometry" />
        </mxCell>
        <mxCell id="DLG-NYhF3aaEdHH3IO_--111" value="status" style="text;html=1;strokeColor=none;fillColor=none;align=center;verticalAlign=middle;whiteSpace=wrap;rounded=0;" parent="1" vertex="1">
          <mxGeometry x="485" y="605" width="60" height="30" as="geometry" />
        </mxCell>
        <mxCell id="DLG-NYhF3aaEdHH3IO_--112" value="due_date" style="text;html=1;strokeColor=none;fillColor=none;align=center;verticalAlign=middle;whiteSpace=wrap;rounded=0;" parent="1" vertex="1">
          <mxGeometry x="370" y="605" width="60" height="30" as="geometry" />
        </mxCell>
        <mxCell id="DLG-NYhF3aaEdHH3IO_--114" value="1" style="text;html=1;strokeColor=none;fillColor=none;align=center;verticalAlign=middle;whiteSpace=wrap;rounded=0;" parent="1" vertex="1">
          <mxGeometry x="190" y="240" width="60" height="30" as="geometry" />
        </mxCell>
        <mxCell id="DLG-NYhF3aaEdHH3IO_--115" value="N" style="text;html=1;strokeColor=none;fillColor=none;align=center;verticalAlign=middle;whiteSpace=wrap;rounded=0;" parent="1" vertex="1">
          <mxGeometry x="530" y="240" width="60" height="30" as="geometry" />
        </mxCell>
        <mxCell id="DLG-NYhF3aaEdHH3IO_--116" value="1" style="text;html=1;strokeColor=none;fillColor=none;align=center;verticalAlign=middle;whiteSpace=wrap;rounded=0;" parent="1" vertex="1">
          <mxGeometry x="150" y="300" width="60" height="30" as="geometry" />
        </mxCell>
        <mxCell id="DLG-NYhF3aaEdHH3IO_--118" value="1" style="text;html=1;strokeColor=none;fillColor=none;align=center;verticalAlign=middle;whiteSpace=wrap;rounded=0;" parent="1" vertex="1">
          <mxGeometry x="590" y="300" width="60" height="30" as="geometry" />
        </mxCell>
        <mxCell id="DLG-NYhF3aaEdHH3IO_--119" value="N" style="text;html=1;strokeColor=none;fillColor=none;align=center;verticalAlign=middle;whiteSpace=wrap;rounded=0;" parent="1" vertex="1">
          <mxGeometry x="270" y="420" width="60" height="30" as="geometry" />
        </mxCell>
        <mxCell id="DLG-NYhF3aaEdHH3IO_--120" value="N" style="text;html=1;strokeColor=none;fillColor=none;align=center;verticalAlign=middle;whiteSpace=wrap;rounded=0;" parent="1" vertex="1">
          <mxGeometry x="470" y="420" width="60" height="30" as="geometry" />
        </mxCell>
      </root>
    </mxGraphModel>
  </diagram>
</mxfile>
